<svg width="16" height="19" viewBox="0 0 16 19" fill="none" xmlns="http://www.w3.org/2000/svg">
<path id="Vector" d="M13.5426 18.2051C14.1954 18.205 14.8215 17.9818 15.2831 17.5846C15.7446 17.1874 16.0039 16.6487 16.0038 16.0871L16.0013 2.32235C16.0013 1.76072 15.7418 1.22213 15.2801 0.825075C14.8184 0.428021 14.1923 0.205022 13.5394 0.205137L2.46252 0.207086C1.80967 0.207201 1.18361 0.43042 0.722054 0.827637C0.260495 1.22485 0.00125037 1.76353 0.0013492 2.32517L0.00377138 16.0899C0.00387021 16.6515 0.263305 17.1901 0.725003 17.5871C1.1867 17.9842 1.81284 18.2072 2.46568 18.2071L13.5426 18.2051ZM8.61673 2.32365L13.5398 2.32278L13.5407 7.6169L8.61767 7.61777L8.61673 2.32365ZM2.46289 2.32473L7.38597 2.32387L7.38615 3.38269L2.46307 3.38356L2.46289 2.32473ZM2.46326 4.44238L7.38634 4.44151L7.38652 5.50034L2.46345 5.5012L2.46326 4.44238ZM2.46363 6.56003L7.38671 6.55916L7.3869 7.61799L2.46382 7.61885L2.46363 6.56003ZM2.46401 8.67768L13.5409 8.67573L13.5411 9.73455L2.46419 9.7365L2.46401 8.67768ZM2.46438 10.7953L13.5413 10.7934L13.5415 11.8522L2.46456 11.8541L2.46438 10.7953ZM2.46475 12.913L13.5417 12.911L13.5419 13.9698L2.46494 13.9718L2.46475 12.913Z" fill="white"/>
</svg>
