<svg width="31" height="31" viewBox="0 0 31 31" fill="none" xmlns="http://www.w3.org/2000/svg">
<g id="material-symbols:nest-doorbell-visitor-outline">
<path id="Vector" d="M23.2498 23.2507C22.5394 23.2507 21.9315 22.9979 21.426 22.4924C20.9205 21.987 20.6674 21.3786 20.6665 20.6673C20.6656 19.956 20.9188 19.3481 21.426 18.8435C21.9332 18.3389 22.5411 18.0857 23.2498 18.084C23.9585 18.0823 24.5669 18.3354 25.075 18.8435C25.583 19.3515 25.8358 19.9595 25.8332 20.6673C25.8306 21.3752 25.5779 21.9835 25.075 22.4924C24.5721 23.0014 23.9637 23.2541 23.2498 23.2507ZM18.0832 28.4173V27.6746C18.0832 26.7274 18.5568 25.9683 19.504 25.3974C20.4512 24.8265 21.6998 24.5415 23.2498 24.5423C24.7998 24.5432 26.0484 24.8286 26.9957 25.3987C27.9429 25.9688 28.4165 26.7274 28.4165 27.6746V28.4173H18.0832ZM21.9582 15.5007H19.3748V9.04232C19.3748 7.9444 18.9873 7.0243 18.2123 6.28203C17.4373 5.53975 16.5332 5.16818 15.4998 5.16732C14.4665 5.16646 13.5623 5.53803 12.7873 6.28203C12.0123 7.02603 11.6248 7.94612 11.6248 9.04232V21.959C11.6248 22.9923 12.0123 23.8965 12.7873 24.6715C13.5623 25.4465 14.4665 25.834 15.4998 25.834V28.4173C13.67 28.4173 12.1363 27.7986 10.8989 26.5612C9.6615 25.3238 9.04237 23.7897 9.0415 21.959V9.04232C9.0415 7.21246 9.66064 5.67882 10.8989 4.4414C12.1372 3.20399 13.6708 2.58485 15.4998 2.58399C17.3288 2.58312 18.8629 3.20226 20.102 4.4414C21.3412 5.68054 21.9599 7.21418 21.9582 9.04232V15.5007ZM15.4998 12.9173C16.2103 12.9173 16.8186 12.6646 17.325 12.1591C17.8313 11.6536 18.084 11.0453 18.0832 10.334C18.0823 9.62271 17.8296 9.01476 17.325 8.51015C16.8204 8.00554 16.212 7.75237 15.4998 7.75065C14.7877 7.74893 14.1798 8.0021 13.676 8.51015C13.1723 9.01821 12.9191 9.62615 12.9165 10.334C12.9139 11.0418 13.1671 11.6502 13.676 12.1591C14.1849 12.668 14.7929 12.9208 15.4998 12.9173ZM12.9165 20.6673C12.9165 21.3777 13.1697 21.9861 13.676 22.4924C14.1823 22.9988 14.7903 23.2515 15.4998 23.2507C16.2094 23.2498 16.8178 22.9971 17.325 22.4924C17.8322 21.9878 18.0849 21.3795 18.0832 20.6673C18.0814 19.9552 17.8287 19.3472 17.325 18.8435C16.8212 18.3397 16.2128 18.0866 15.4998 18.084C14.7868 18.0814 14.1789 18.3346 13.676 18.8435C13.1731 19.3524 12.9199 19.9603 12.9165 20.6673ZM15.4998 21.959C15.1123 21.959 14.8002 21.8247 14.5634 21.556C14.3266 21.2873 14.2082 20.9911 14.2082 20.6673C14.2082 20.3435 14.3266 20.0478 14.5634 19.7799C14.8002 19.5121 15.1123 19.3774 15.4998 19.3757C15.8873 19.3739 16.1995 19.4923 16.4363 19.7309C16.6731 19.9694 16.7915 20.2815 16.7915 20.6673C16.7915 20.9902 16.6731 21.2865 16.4363 21.556C16.1995 21.8255 15.8873 21.9598 15.4998 21.959Z" fill="white"/>
</g>
</svg>
