<svg width="19" height="19" viewBox="0 0 19 19" fill="none" xmlns="http://www.w3.org/2000/svg">
<g id="Group">
<path id="Vector" d="M1.00247 9.59912C1.00177 5.59249 1.00141 3.58828 2.24577 2.34348C3.49013 1.09868 5.49345 1.09833 9.50098 1.09763C13.5076 1.09692 15.5118 1.09657 16.7566 2.34093C18.0014 3.58529 18.0018 5.5886 18.0025 9.59613C18.0032 13.6028 18.0035 15.607 16.7592 16.8518C15.5148 18.0966 13.5115 18.0969 9.50397 18.0976C5.49734 18.0983 3.49313 18.0987 2.24833 16.8543C1.00353 15.61 1.00318 13.6066 1.00247 9.59912Z" stroke="white" stroke-width="1.5" stroke-linecap="round" stroke-linejoin="round"/>
<path id="Vector_2" d="M1.00287 11.836L1.48513 11.8359C1.90744 11.8358 2.1186 11.8358 2.3029 11.7472C2.48631 11.6594 2.61781 11.4939 2.88169 11.1637L4.13405 9.59857L5.47655 11.8352L6.8181 8.70336L9.05573 13.1767L12.1862 6.91294L13.9762 10.0442L15.3181 8.70186L16.6113 10.6414C16.8369 10.9796 16.9496 11.1487 17.1143 11.2507C17.1471 11.2709 17.1811 11.2891 17.2163 11.3052C17.3935 11.3857 17.5966 11.3857 18.0028 11.3856M12.1852 1.09715L12.1857 3.78136M12.1882 18.0972L12.1871 11.834" stroke="white" stroke-width="1.5" stroke-linecap="round" stroke-linejoin="round"/>
<path id="Vector_3" d="M12.1861 7.80787C12.6802 7.80778 13.0807 7.40713 13.0806 6.91298C13.0806 6.41883 12.6799 6.01831 12.1858 6.0184C11.6916 6.01848 11.2911 6.41914 11.2912 6.91329C11.2913 7.40744 11.6919 7.80796 12.1861 7.80787Z" stroke="white" stroke-width="1.5" stroke-linecap="round" stroke-linejoin="round"/>
</g>
</svg>
