<svg width="25" height="24" viewBox="0 0 25 24" fill="none" xmlns="http://www.w3.org/2000/svg">
<path id="Vector" d="M2.44975 23.5488V7.06549L0 1.63494L2.26131 0.548828L5.21357 7.00161H19.7864L22.7387 0.548828L25 1.63494L22.5502 7.06549V23.5488H2.44975ZM9.98744 14.6044H15.0126C15.3685 14.6044 15.6671 14.4817 15.9083 14.2364C16.1495 13.9911 16.2697 13.6878 16.2688 13.3266C16.268 12.9654 16.1474 12.6622 15.907 12.4168C15.6667 12.1715 15.3685 12.0488 15.0126 12.0488H9.98744C9.63149 12.0488 9.33333 12.1715 9.09296 12.4168C8.8526 12.6622 8.73199 12.9654 8.73115 13.3266C8.73032 13.6878 8.85092 13.9915 9.09296 14.2377C9.33501 14.4838 9.63316 14.6061 9.98744 14.6044ZM4.96231 20.9933H20.0377V9.55716H4.96231V20.9933Z" fill="white"/>
</svg>
