<svg width="22" height="22" viewBox="0 0 22 22" fill="none" xmlns="http://www.w3.org/2000/svg">
<g id="Group">
<path id="Vector" d="M11 1C5.477 1 1 5.477 1 11C1 16.523 5.477 21 11 21C16.523 21 21 16.523 21 11C21 5.477 16.523 1 11 1Z" stroke="white" stroke-width="1.5" stroke-linecap="round" stroke-linejoin="round"/>
<path id="Vector_2" d="M3.26953 17.346C3.26953 17.346 5.49853 14.5 10.9985 14.5C16.4985 14.5 18.7285 17.346 18.7285 17.346M10.9985 11C11.7942 11 12.5572 10.6839 13.1199 10.1213C13.6825 9.55871 13.9985 8.79565 13.9985 8C13.9985 7.20435 13.6825 6.44129 13.1199 5.87868C12.5572 5.31607 11.7942 5 10.9985 5C10.2029 5 9.43982 5.31607 8.87721 5.87868C8.3146 6.44129 7.99853 7.20435 7.99853 8C7.99853 8.79565 8.3146 9.55871 8.87721 10.1213C9.43982 10.6839 10.2029 11 10.9985 11Z" stroke="white" stroke-width="1.5" stroke-linecap="round" stroke-linejoin="round"/>
</g>
</svg>
