<svg width="20" height="22" viewBox="0 0 20 22" fill="none" xmlns="http://www.w3.org/2000/svg">
<path id="Vector" d="M11.0026 9.15138C10.4526 9.15148 10.0025 8.70156 10.0024 8.15156C10.0023 7.60156 10.4522 7.15148 11.0022 7.15138C11.5522 7.15129 12.0023 7.60121 12.0024 8.15121C12.0025 8.70121 11.5526 9.15129 11.0026 9.15138ZM11.0019 5.15138C10.4519 5.15148 10.0018 4.70156 10.0017 4.15156L10.0012 1.15156C10.0011 0.601561 10.451 0.151481 11.001 0.151385C11.551 0.151288 12.0011 0.601209 12.0012 1.15121L12.0017 4.15121C12.0018 4.70121 11.5519 5.15129 11.0019 5.15138ZM6.00397 17.1523C4.90397 17.1525 4.01413 18.0526 4.01432 19.1526C4.01451 20.2526 4.90467 21.1525 6.00467 21.1523C7.10467 21.1521 8.00451 20.2519 8.00432 19.1519C8.00413 18.0519 7.10397 17.1521 6.00397 17.1523ZM16.004 17.1505C14.904 17.1507 14.0141 18.0509 14.0143 19.1509C14.0145 20.2509 14.9047 21.1507 16.0047 21.1505C17.1047 21.1503 18.0045 20.2502 18.0043 19.1502C18.0041 18.0502 17.104 17.1503 16.004 17.1505ZM7.10309 12.1521L14.5531 12.1508C15.3031 12.1506 15.963 11.7405 16.3029 11.1205L19.5418 4.97988C19.664 4.74864 19.6905 4.47868 19.6156 4.22809C19.5408 3.97751 19.3706 3.76631 19.1416 3.63995C19.0256 3.57646 18.8982 3.53669 18.7667 3.52297C18.6351 3.50925 18.5022 3.52185 18.3756 3.56004C18.2491 3.59822 18.1313 3.66123 18.0294 3.74538C17.9274 3.82954 17.8432 3.93315 17.7817 4.05019L14.5527 10.1508L7.53274 10.152L3.27115 1.15274L1.00115 1.15314C0.451153 1.15324 0.00123172 1.60332 0.0013285 2.15332C0.00142529 2.70332 0.451504 3.15324 1.0015 3.15314L2.0015 3.15297L5.60284 10.7423L4.25327 13.1826C3.52351 14.5227 4.48379 16.1525 6.00379 16.1523L17.0038 16.1503C17.5538 16.1502 18.0037 15.7002 18.0036 15.1502C18.0035 14.6002 17.5534 14.1502 17.0034 14.1503L6.00344 14.1523L7.10309 12.1521Z" fill="white"/>
</svg>
