<svg width="16" height="19" viewBox="0 0 16 19" fill="none" xmlns="http://www.w3.org/2000/svg">
<g id="mingcute:user-follow-line">
<g id="Group">
<path id="Vector" fill-rule="evenodd" clip-rule="evenodd" d="M10.6725 10.5439C11.5566 10.5439 12.4044 10.939 13.0295 11.6423C13.6547 12.3456 14.0059 13.2994 14.0059 14.2939L14.0059 15.7939C14.0059 15.9929 13.9356 16.1836 13.8106 16.3243C13.6856 16.4649 13.516 16.5439 13.3392 16.5439C13.1624 16.5439 12.9928 16.4649 12.8678 16.3243C12.7428 16.1836 12.6725 15.9929 12.6725 15.7939L12.6725 14.2939C12.6725 13.6972 12.4618 13.1249 12.0867 12.703C11.7117 12.281 11.203 12.0439 10.6725 12.0439L5.33919 12.0439C4.80876 12.0439 4.30005 12.281 3.92498 12.703C3.54991 13.1249 3.33919 13.6972 3.33919 14.2939L3.33919 15.7939C3.33919 15.9929 3.26895 16.1836 3.14393 16.3243C3.01891 16.4649 2.84934 16.5439 2.67253 16.5439C2.49572 16.5439 2.32615 16.4649 2.20112 16.3243C2.0761 16.1836 2.00586 15.9929 2.00586 15.7939L2.00586 14.2939C2.00586 13.2994 2.35705 12.3456 2.98217 11.6423C3.60729 10.939 4.45514 10.5439 5.33919 10.5439L10.6725 10.5439ZM14.2819 6.85469C14.4016 6.71875 14.5629 6.63942 14.7329 6.63293C14.9029 6.62644 15.0686 6.69329 15.1962 6.81979C15.3239 6.9463 15.4037 7.12288 15.4193 7.31341C15.435 7.50394 15.3853 7.694 15.2805 7.84469L15.2245 7.91594L13.3392 10.0369C13.2244 10.1661 13.0717 10.2436 12.9096 10.2551C12.7476 10.2666 12.5875 10.2111 12.4592 10.0992L12.3965 10.0369L11.4539 8.97644C11.333 8.84179 11.2625 8.66027 11.2567 8.46903C11.251 8.2778 11.3104 8.09132 11.4228 7.94776C11.5353 7.8042 11.6923 7.71442 11.8616 7.69679C12.031 7.67917 12.1999 7.73503 12.3339 7.85294L12.3965 7.91519L12.8679 8.44619L14.2819 6.85469ZM8.00586 1.54395C8.88991 1.54395 9.73776 1.93903 10.3629 2.64229C10.988 3.34556 11.3392 4.29938 11.3392 5.29394C11.3392 6.28851 10.988 7.24233 10.3629 7.94559C9.73776 8.64886 8.88991 9.04394 8.00586 9.04394C7.12181 9.04394 6.27396 8.64886 5.64884 7.94559C5.02372 7.24233 4.67253 6.28851 4.67253 5.29394C4.67253 4.29938 5.02372 3.34556 5.64884 2.64229C6.27396 1.93903 7.12181 1.54395 8.00586 1.54395ZM8.00586 3.04395C7.74322 3.04395 7.48314 3.10214 7.24049 3.21522C6.99784 3.32829 6.77736 3.49402 6.59165 3.70295C6.40593 3.91189 6.25861 4.15992 6.1581 4.43291C6.05759 4.70589 6.00586 4.99847 6.00586 5.29394C6.00586 5.58942 6.05759 5.882 6.1581 6.15498C6.25861 6.42796 6.40593 6.676 6.59165 6.88493C6.77736 7.09387 6.99784 7.2596 7.24049 7.37267C7.48314 7.48575 7.74322 7.54394 8.00586 7.54394C8.53629 7.54394 9.045 7.30689 9.42007 6.88493C9.79515 6.46298 10.0059 5.89068 10.0059 5.29394C10.0059 4.69721 9.79515 4.12491 9.42007 3.70295C9.045 3.281 8.53629 3.04395 8.00586 3.04395Z" fill="white"/>
</g>
</g>
</svg>
