<svg width="106" height="106" viewBox="0 0 106 106" fill="none" xmlns="http://www.w3.org/2000/svg">
<g id="Group 434">
<circle id="Ellipse 47" cx="53" cy="53" r="53" fill="white"/>
<path id="Vector" d="M50.5625 22.9668C59.8441 22.9668 67.3678 30.4468 67.3678 39.6759C67.3688 42.0941 66.8425 44.4835 65.8255 46.6776C64.8086 48.8716 63.3254 50.8175 61.4794 52.3797C62.2665 52.7703 62.9836 53.1609 63.6307 53.5544C65.0241 54.3998 66.47 55.4492 67.9742 56.6998C68.177 56.8681 68.3446 57.075 68.4671 57.3085C68.5896 57.5419 68.6647 57.7973 68.688 58.0599C68.7113 58.3225 68.6824 58.5871 68.6029 58.8385C68.5234 59.0899 68.3949 59.323 68.2249 59.5245C67.8804 59.9333 67.3881 60.1892 66.8555 60.2362C66.3229 60.2832 65.7934 60.1174 65.3827 59.7752C64.1689 58.7485 62.8808 57.8132 61.529 56.9767C60.2125 56.2003 58.844 55.5156 57.4333 54.9274C55.2714 55.8922 52.9299 56.3889 50.5625 56.385C47.9527 56.3889 45.3778 55.785 43.0417 54.6214L42.9193 54.6797C37.2349 56.8834 33.0868 60.1425 30.4079 64.4684C27.7202 68.8089 26.6212 73.6596 27.1139 79.0845C27.1367 79.3475 27.1074 79.6124 27.0277 79.8642C26.948 80.1158 26.8194 80.3494 26.6494 80.5513C26.4794 80.7533 26.2712 80.9198 26.0368 81.0412C25.8023 81.1627 25.5463 81.2367 25.2832 81.2591C24.7526 81.3077 24.2243 81.1438 23.8144 80.8033C23.4045 80.4628 23.1464 79.9736 23.0969 79.443C22.5285 73.1698 23.8228 67.4534 26.9739 62.3666C29.7432 57.8891 33.8156 54.4086 39.1414 51.9249C37.4436 50.3683 36.0884 48.4754 35.162 46.3666C34.2355 44.2578 33.7581 41.9792 33.7602 39.6759C33.7602 30.4468 41.281 22.9668 50.5625 22.9668ZM72.1369 59.9676C73.2446 59.9676 74.1424 60.8712 74.1424 61.9819V67.089H79.2496C79.514 67.0883 79.7759 67.1396 80.0204 67.2402C80.2649 67.3407 80.4872 67.4885 80.6746 67.6751C80.8619 67.8616 81.0107 68.0833 81.1123 68.3273C81.2139 68.5714 81.2664 68.8331 81.2668 69.0975C81.2645 69.6305 81.0508 70.1407 80.6725 70.5162C80.2943 70.8917 79.7825 71.1017 79.2496 71.1001H74.1424V76.2102C74.1432 76.7432 73.9324 77.2547 73.5564 77.6323C73.1804 78.01 72.6698 78.223 72.1369 78.2245C71.6039 78.223 71.0934 78.01 70.7173 77.6323C70.3413 77.2547 70.1305 76.7432 70.1313 76.2102V71.1001H65.0241C64.4912 71.1017 63.9794 70.8917 63.6012 70.5162C63.223 70.1407 63.0092 69.6305 63.0069 69.0975C63.0069 67.9898 63.9106 67.0919 65.0241 67.0919L70.1313 67.089V61.9819C70.1305 61.4489 70.3413 60.9374 70.7173 60.5598C71.0934 60.1821 71.6039 59.9691 72.1369 59.9676ZM50.5655 26.9779C43.511 26.9779 37.7917 32.6623 37.7917 39.6759C37.7917 46.6895 43.511 52.3768 50.5625 52.3768C57.617 52.3768 63.3334 46.6924 63.3334 39.6759C63.3334 32.6623 57.617 26.9779 50.5655 26.9779Z" fill="#929292"/>
</g>
</svg>
