<svg width="88" height="88" viewBox="0 0 88 88" fill="none" xmlns="http://www.w3.org/2000/svg">
<g id="Group 308">
<g id="Ellipse 20" filter="url(#filter0_dddddd_345_273)">
<circle cx="42.3334" cy="42.4444" r="39.4444" fill="url(#paint0_linear_345_273)"/>
</g>
<g id="Group">
<path id="Vector" d="M42.3096 22.7222V24.8376M42.3096 35.3294V40.3717M42.3096 60.0512V62.1666M22.6111 42.4444H24.7211M59.9014 42.4444H62.0114M56.3804 28.359L54.976 29.7649M29.6432 55.1206L28.2388 56.5265M28.2388 28.359L29.6432 29.7649M54.976 55.1206L56.3804 56.5265M29.6367 42.4444C29.6367 44.1099 29.9644 45.7591 30.6011 47.2979C31.2378 48.8366 32.171 50.2348 33.3475 51.4125C34.524 52.5902 35.9207 53.5244 37.4578 54.1618C38.995 54.7991 40.6425 55.1272 42.3063 55.1272C43.9701 55.1272 45.6176 54.7991 47.1548 54.1618C48.6919 53.5244 50.0886 52.5902 51.2651 51.4125C52.4416 50.2348 53.3748 48.8366 54.0115 47.2979C54.6482 45.7591 54.976 44.1099 54.976 42.4444C54.976 39.0807 53.6411 35.8548 51.2651 33.4763C48.8891 31.0978 45.6665 29.7616 42.3063 29.7616C38.9461 29.7616 35.7235 31.0978 33.3475 33.4763C30.9715 35.8548 29.6367 39.0807 29.6367 42.4444Z" stroke="#1F2937" stroke-width="3.55" stroke-linecap="round" stroke-linejoin="round"/>
<path id="Vector_2" d="M37.6762 38.8872C37.0316 39.7482 36.6391 40.7718 36.5428 41.8434C36.4465 42.9151 36.6502 43.9924 37.131 44.9547C37.6118 45.917 38.3508 46.7263 39.2652 47.2919C40.1795 47.8575 41.2332 48.157 42.308 48.157C43.3828 48.157 44.4365 47.8575 45.3508 47.2919C46.2652 46.7263 47.0042 45.917 47.485 44.9547C47.9658 43.9924 48.1695 42.9151 48.0732 41.8434C47.9769 40.7718 47.5844 39.7482 46.9398 38.8872" stroke="#1F2937" stroke-width="3.55" stroke-linecap="round" stroke-linejoin="round"/>
</g>
</g>
<defs>
<filter id="filter0_dddddd_345_273" x="-0.00786948" y="0.103215" width="87.5793" height="87.579" filterUnits="userSpaceOnUse" color-interpolation-filters="sRGB">
<feFlood flood-opacity="0" result="BackgroundImageFix"/>
<feColorMatrix in="SourceAlpha" type="matrix" values="0 0 0 0 0 0 0 0 0 0 0 0 0 0 0 0 0 0 127 0" result="hardAlpha"/>
<feOffset dy="2.89679"/>
<feGaussianBlur stdDeviation="1.44839"/>
<feComposite in2="hardAlpha" operator="out"/>
<feColorMatrix type="matrix" values="0 0 0 0 0 0 0 0 0 0 0 0 0 0 0 0 0 0 0.25 0"/>
<feBlend mode="normal" in2="BackgroundImageFix" result="effect1_dropShadow_345_273"/>
<feColorMatrix in="SourceAlpha" type="matrix" values="0 0 0 0 0 0 0 0 0 0 0 0 0 0 0 0 0 0 127 0" result="hardAlpha"/>
<feOffset dy="2.89679"/>
<feGaussianBlur stdDeviation="1.44839"/>
<feComposite in2="hardAlpha" operator="out"/>
<feColorMatrix type="matrix" values="0 0 0 0 0 0 0 0 0 0 0 0 0 0 0 0 0 0 0.25 0"/>
<feBlend mode="normal" in2="effect1_dropShadow_345_273" result="effect2_dropShadow_345_273"/>
<feColorMatrix in="SourceAlpha" type="matrix" values="0 0 0 0 0 0 0 0 0 0 0 0 0 0 0 0 0 0 127 0" result="hardAlpha"/>
<feOffset dy="2.89679"/>
<feGaussianBlur stdDeviation="1.44839"/>
<feComposite in2="hardAlpha" operator="out"/>
<feColorMatrix type="matrix" values="0 0 0 0 0 0 0 0 0 0 0 0 0 0 0 0 0 0 0.25 0"/>
<feBlend mode="normal" in2="effect2_dropShadow_345_273" result="effect3_dropShadow_345_273"/>
<feColorMatrix in="SourceAlpha" type="matrix" values="0 0 0 0 0 0 0 0 0 0 0 0 0 0 0 0 0 0 127 0" result="hardAlpha"/>
<feOffset dx="2.89679"/>
<feGaussianBlur stdDeviation="1.44839"/>
<feComposite in2="hardAlpha" operator="out"/>
<feColorMatrix type="matrix" values="0 0 0 0 0 0 0 0 0 0 0 0 0 0 0 0 0 0 0.25 0"/>
<feBlend mode="normal" in2="effect3_dropShadow_345_273" result="effect4_dropShadow_345_273"/>
<feColorMatrix in="SourceAlpha" type="matrix" values="0 0 0 0 0 0 0 0 0 0 0 0 0 0 0 0 0 0 127 0" result="hardAlpha"/>
<feOffset dx="2.89679"/>
<feGaussianBlur stdDeviation="1.44839"/>
<feComposite in2="hardAlpha" operator="out"/>
<feColorMatrix type="matrix" values="0 0 0 0 0 0 0 0 0 0 0 0 0 0 0 0 0 0 0.25 0"/>
<feBlend mode="normal" in2="effect4_dropShadow_345_273" result="effect5_dropShadow_345_273"/>
<feColorMatrix in="SourceAlpha" type="matrix" values="0 0 0 0 0 0 0 0 0 0 0 0 0 0 0 0 0 0 127 0" result="hardAlpha"/>
<feOffset dx="2.89679"/>
<feGaussianBlur stdDeviation="1.44839"/>
<feComposite in2="hardAlpha" operator="out"/>
<feColorMatrix type="matrix" values="0 0 0 0 0 0 0 0 0 0 0 0 0 0 0 0 0 0 0.25 0"/>
<feBlend mode="normal" in2="effect5_dropShadow_345_273" result="effect6_dropShadow_345_273"/>
<feBlend mode="normal" in="SourceGraphic" in2="effect6_dropShadow_345_273" result="shape"/>
</filter>
<linearGradient id="paint0_linear_345_273" x1="14.7223" y1="20.3556" x2="67.5778" y2="74.5259" gradientUnits="userSpaceOnUse">
<stop stop-color="#ACACAC"/>
<stop offset="1" stop-color="#515151"/>
</linearGradient>
</defs>
</svg>
