<svg width="88" height="88" viewBox="0 0 88 88" fill="none" xmlns="http://www.w3.org/2000/svg">
<g id="Group 307">
<g id="Ellipse 22" filter="url(#filter0_dddddd_345_270)">
<circle cx="42.4444" cy="42.4444" r="39.4444" fill="url(#paint0_linear_345_270)"/>
</g>
<path id="Vector" d="M32.5745 32.5833H32.5922M44.3937 46.3888H56.2129C58.0488 46.3888 58.9667 46.3888 59.6897 46.6886C60.168 46.8868 60.6026 47.1775 60.9687 47.544C61.3347 47.9105 61.625 48.3456 61.823 48.8245C62.1224 49.5483 62.1225 50.4674 62.1225 52.3055C62.1225 54.1436 62.1224 55.0627 61.823 55.7865C61.625 56.2654 61.3347 56.7005 60.9687 57.067C60.6026 57.4335 60.168 57.7242 59.6897 57.9224C58.9667 58.2222 58.0488 58.2222 56.2129 58.2222H44.3937M48.3334 28.6388H56.2129C58.0488 28.6388 58.9667 28.6388 59.6897 28.9386C60.168 29.1368 60.6026 29.4275 60.9687 29.794C61.3347 30.1605 61.625 30.5956 61.823 31.0745C62.1224 31.7983 62.1225 32.7174 62.1225 34.5555C62.1225 36.3936 62.1224 37.3127 61.823 38.0365C61.625 38.5154 61.3347 38.9505 60.9687 39.317C60.6026 39.6835 60.168 39.9742 59.6897 40.1724C58.9667 40.4722 58.0488 40.4722 56.2129 40.4722H48.3334M32.5745 22.7222C30.4058 22.7215 28.2974 23.4375 26.5767 24.7591C24.8559 26.0807 23.619 27.9339 23.0577 30.0313C22.4965 32.1286 22.6423 34.3528 23.4726 36.3587C24.3029 38.3645 25.7713 40.04 27.6498 41.125V53.9681C27.6498 55.5814 27.6498 56.386 27.9492 57.1118C28.2487 57.8356 28.8199 58.4056 29.9585 59.5475L32.5745 62.1666L36.727 58.0092C36.918 57.8179 37.0146 57.7212 37.0933 57.6167C37.3021 57.3436 37.4358 57.0207 37.4814 56.6799C37.4991 56.5497 37.4991 56.4136 37.4991 56.1434C37.4991 55.9245 37.4991 55.8141 37.4873 55.7076C37.4566 55.4281 37.3666 55.1585 37.2234 54.9167C37.1459 54.7938 37.0617 54.6753 36.9712 54.5617L34.5443 51.3194L35.9232 49.4793C36.7033 48.436 37.0953 47.9153 37.2962 47.3079C37.4991 46.7004 37.4991 46.0496 37.4991 44.744V41.125C39.3777 40.04 40.846 38.3645 41.6763 36.3587C42.5067 34.3528 42.6525 32.1286 42.0912 30.0313C41.53 27.9339 40.293 26.0807 38.5723 24.7591C36.8515 23.4375 34.7432 22.7215 32.5745 22.7222Z" stroke="#1F2937" stroke-width="3.55" stroke-linecap="round" stroke-linejoin="round"/>
</g>
<defs>
<filter id="filter0_dddddd_345_270" x="0.103215" y="0.103215" width="87.5793" height="87.579" filterUnits="userSpaceOnUse" color-interpolation-filters="sRGB">
<feFlood flood-opacity="0" result="BackgroundImageFix"/>
<feColorMatrix in="SourceAlpha" type="matrix" values="0 0 0 0 0 0 0 0 0 0 0 0 0 0 0 0 0 0 127 0" result="hardAlpha"/>
<feOffset dy="2.89679"/>
<feGaussianBlur stdDeviation="1.44839"/>
<feComposite in2="hardAlpha" operator="out"/>
<feColorMatrix type="matrix" values="0 0 0 0 0 0 0 0 0 0 0 0 0 0 0 0 0 0 0.25 0"/>
<feBlend mode="normal" in2="BackgroundImageFix" result="effect1_dropShadow_345_270"/>
<feColorMatrix in="SourceAlpha" type="matrix" values="0 0 0 0 0 0 0 0 0 0 0 0 0 0 0 0 0 0 127 0" result="hardAlpha"/>
<feOffset dy="2.89679"/>
<feGaussianBlur stdDeviation="1.44839"/>
<feComposite in2="hardAlpha" operator="out"/>
<feColorMatrix type="matrix" values="0 0 0 0 0 0 0 0 0 0 0 0 0 0 0 0 0 0 0.25 0"/>
<feBlend mode="normal" in2="effect1_dropShadow_345_270" result="effect2_dropShadow_345_270"/>
<feColorMatrix in="SourceAlpha" type="matrix" values="0 0 0 0 0 0 0 0 0 0 0 0 0 0 0 0 0 0 127 0" result="hardAlpha"/>
<feOffset dy="2.89679"/>
<feGaussianBlur stdDeviation="1.44839"/>
<feComposite in2="hardAlpha" operator="out"/>
<feColorMatrix type="matrix" values="0 0 0 0 0 0 0 0 0 0 0 0 0 0 0 0 0 0 0.25 0"/>
<feBlend mode="normal" in2="effect2_dropShadow_345_270" result="effect3_dropShadow_345_270"/>
<feColorMatrix in="SourceAlpha" type="matrix" values="0 0 0 0 0 0 0 0 0 0 0 0 0 0 0 0 0 0 127 0" result="hardAlpha"/>
<feOffset dx="2.89679"/>
<feGaussianBlur stdDeviation="1.44839"/>
<feComposite in2="hardAlpha" operator="out"/>
<feColorMatrix type="matrix" values="0 0 0 0 0 0 0 0 0 0 0 0 0 0 0 0 0 0 0.25 0"/>
<feBlend mode="normal" in2="effect3_dropShadow_345_270" result="effect4_dropShadow_345_270"/>
<feColorMatrix in="SourceAlpha" type="matrix" values="0 0 0 0 0 0 0 0 0 0 0 0 0 0 0 0 0 0 127 0" result="hardAlpha"/>
<feOffset dx="2.89679"/>
<feGaussianBlur stdDeviation="1.44839"/>
<feComposite in2="hardAlpha" operator="out"/>
<feColorMatrix type="matrix" values="0 0 0 0 0 0 0 0 0 0 0 0 0 0 0 0 0 0 0.25 0"/>
<feBlend mode="normal" in2="effect4_dropShadow_345_270" result="effect5_dropShadow_345_270"/>
<feColorMatrix in="SourceAlpha" type="matrix" values="0 0 0 0 0 0 0 0 0 0 0 0 0 0 0 0 0 0 127 0" result="hardAlpha"/>
<feOffset dx="2.89679"/>
<feGaussianBlur stdDeviation="1.44839"/>
<feComposite in2="hardAlpha" operator="out"/>
<feColorMatrix type="matrix" values="0 0 0 0 0 0 0 0 0 0 0 0 0 0 0 0 0 0 0.25 0"/>
<feBlend mode="normal" in2="effect5_dropShadow_345_270" result="effect6_dropShadow_345_270"/>
<feBlend mode="normal" in="SourceGraphic" in2="effect6_dropShadow_345_270" result="shape"/>
</filter>
<linearGradient id="paint0_linear_345_270" x1="14.8333" y1="20.3556" x2="67.6889" y2="74.5259" gradientUnits="userSpaceOnUse">
<stop stop-color="#ACACAC"/>
<stop offset="1" stop-color="#515151"/>
</linearGradient>
</defs>
</svg>
