<svg width="29" height="27" viewBox="0 0 29 27" fill="none" xmlns="http://www.w3.org/2000/svg">
<path id="Vector" d="M12.4623 17.0117C12.4623 17.3661 12.3372 17.6684 12.087 17.9185L9.06935 20.9362C8.81918 21.1864 8.51168 21.3115 8.14684 21.3115C7.78201 21.3115 7.47451 21.1916 7.22433 20.9519C6.97416 20.7121 6.84908 20.4046 6.84908 20.0294C6.84908 19.6645 6.97416 19.357 7.22433 19.1069L10.242 16.0892C10.4922 15.839 10.7997 15.7139 11.1645 15.7139C11.5294 15.7139 11.8369 15.839 12.087 16.0892C12.3372 16.3393 12.4623 16.6468 12.4623 17.0117ZM9.25698 15.3856C9.25698 15.7504 9.13189 16.0579 8.88172 16.3081L6.64581 18.5283C6.39564 18.7785 6.09335 18.9036 5.73894 18.9036C5.37411 18.9036 5.0666 18.7837 4.81643 18.544C4.56626 18.3042 4.44117 17.9967 4.44117 17.6215C4.44117 17.2566 4.56626 16.9491 4.81643 16.699L7.03671 14.4631C7.15137 14.3484 7.29209 14.2598 7.45887 14.1972C7.62565 14.1347 7.79243 14.0982 7.95921 14.0878C8.32405 14.0878 8.63155 14.2129 8.88172 14.4631C9.13189 14.7132 9.25698 15.0207 9.25698 15.3856ZM14.6513 19.6541C14.6513 19.9981 14.521 20.3004 14.2604 20.561L11.4773 23.3441C11.2271 23.5943 10.9196 23.7194 10.5547 23.7194C10.1899 23.7194 9.88241 23.5995 9.63224 23.3598C9.38206 23.12 9.25698 22.8125 9.25698 22.4373C9.25698 22.0724 9.38206 21.7649 9.63224 21.5148L12.431 18.7316C12.6916 18.471 12.9939 18.3407 13.3379 18.3407C13.6923 18.3407 13.9998 18.4658 14.2604 18.716C14.521 18.9661 14.6513 19.2789 14.6513 19.6541ZM12.9626 26.1429C12.5978 26.1429 12.2903 26.0179 12.0401 25.7677C11.79 25.5175 11.6649 25.21 11.6649 24.8452C11.6649 24.4803 11.79 24.1728 12.0401 23.9227L14.151 21.8275C14.4116 21.5669 14.7191 21.4366 15.0735 21.4366C15.4383 21.4366 15.7458 21.5669 15.996 21.8275C16.2462 22.0881 16.3712 22.4008 16.3712 22.7656C16.3712 22.9324 16.3348 23.094 16.2618 23.2503C16.1888 23.4067 16.095 23.5422 15.9803 23.6569L13.8852 25.7677C13.635 26.0179 13.3275 26.1429 12.9626 26.1429ZM28.0199 8.11495C28.0199 9.03224 27.9 9.83488 27.6602 10.5228C27.4205 11.2108 27.0974 11.8519 26.6908 12.446C26.2843 13.0402 25.8152 13.6031 25.2836 14.1347C24.752 14.6663 24.1891 15.2396 23.5949 15.8546L14.3699 6.58264L9.72605 11.1952C9.41334 11.4871 9.0485 11.633 8.63155 11.633C8.20417 11.633 7.84455 11.4871 7.55268 11.1952C7.26082 10.9033 7.10967 10.5385 7.09925 10.1007C7.09925 9.67331 7.25039 9.30847 7.55268 9.00618L14.2448 2.34536C15.0161 1.58442 15.8917 1.0059 16.8716 0.609794C17.8514 0.213688 18.8834 0.0104238 19.9675 0C21.0828 0 22.1304 0.213688 23.1102 0.641065C24.0901 1.06844 24.9396 1.65218 25.6589 2.39227C26.3781 3.13236 26.9514 3.99232 27.3788 4.97216C27.8062 5.952 28.0199 6.9996 28.0199 8.11495ZM23.7669 17.5589C23.7669 17.9238 23.6419 18.2313 23.3917 18.4814C23.1415 18.7316 22.834 18.8567 22.4692 18.8567C22.1148 18.8567 21.8125 18.7316 21.5623 18.4814L16.7621 13.6656C16.6892 13.5927 16.5901 13.5562 16.4651 13.5562C16.3504 13.5562 16.2514 13.5927 16.168 13.6656C16.0846 13.7386 16.0429 13.8376 16.0429 13.9627C16.0429 14.0669 16.0846 14.1608 16.168 14.2442L21.4216 19.4978C21.6822 19.7584 21.8125 20.0659 21.8125 20.4203C21.8125 20.7851 21.6874 21.0926 21.4372 21.3428C21.187 21.5929 20.8743 21.718 20.4991 21.718C20.1447 21.718 19.8424 21.5929 19.5922 21.3428L14.3386 16.0892C14.2656 16.0162 14.1666 15.9797 14.0415 15.9797C13.9269 15.9797 13.833 16.0162 13.7601 16.0892C13.6871 16.1621 13.6454 16.2612 13.635 16.3862C13.635 16.4905 13.6767 16.5843 13.7601 16.6677L19.0137 21.9213C19.2638 22.1715 19.3889 22.479 19.3889 22.8438C19.3889 23.2086 19.2638 23.5161 19.0137 23.7663C18.7635 24.0165 18.456 24.1416 18.0912 24.1416C17.8201 24.1416 17.6012 24.0842 17.4345 23.9696C17.2677 23.8549 17.0957 23.6986 16.9185 23.5005C17.0227 23.2816 17.0748 23.0262 17.0748 22.7344C17.0748 22.4529 17.0227 22.1923 16.9185 21.9526C16.8143 21.7128 16.6683 21.4991 16.4807 21.3115C16.2931 21.1239 16.0742 20.9832 15.824 20.8893C15.5738 20.7955 15.308 20.7434 15.0266 20.733C15.235 20.4098 15.3393 20.0502 15.3393 19.6541C15.3393 19.3727 15.2872 19.1121 15.1829 18.8723C15.0787 18.6326 14.938 18.4189 14.7608 18.2313C14.5836 18.0436 14.3699 17.8977 14.1197 17.7935C13.8695 17.6892 13.6141 17.6371 13.3535 17.6371H13.2128C13.1711 17.6371 13.119 17.6475 13.0565 17.6684C13.0877 17.5537 13.1138 17.4443 13.1346 17.34C13.1555 17.2358 13.1659 17.1211 13.1659 16.996C13.1659 16.725 13.1138 16.4696 13.0096 16.2299C12.9053 15.9901 12.7646 15.7765 12.5874 15.5888C12.4102 15.4012 12.1965 15.2553 11.9463 15.151C11.6962 15.0468 11.4356 14.9947 11.1645 14.9947C10.9456 14.9947 10.7372 15.0312 10.5391 15.1041C10.3411 15.1771 10.1482 15.2761 9.96059 15.4012C9.96059 15.1198 9.90847 14.8592 9.80423 14.6194C9.69999 14.3797 9.55927 14.166 9.38206 13.9783C9.20486 13.7907 8.99638 13.6448 8.75664 13.5405C8.51689 13.4363 8.25108 13.3842 7.95921 13.3842C7.69862 13.3842 7.44323 13.4311 7.19306 13.5249C6.94289 13.6187 6.72399 13.7647 6.53636 13.9627L4.55062 15.9641C3.92519 15.3282 3.33625 14.7393 2.78379 14.1972C2.23132 13.6552 1.75183 13.0819 1.3453 12.4773C0.938769 11.8727 0.610419 11.216 0.360247 10.5072C0.110076 9.79839 -0.00979839 8.96449 0.000625429 8.0055C0.000625429 6.90057 0.214314 5.8634 0.64169 4.89398C1.06907 3.92457 1.6528 3.08024 2.39289 2.361C3.13298 1.64175 3.99295 1.06844 4.97279 0.641065C5.95263 0.213688 6.9898 0 8.0843 0C9.09541 0 10.0648 0.177205 10.9925 0.531615C11.9203 0.886025 12.7594 1.40722 13.5099 2.09519L7.05234 8.50584C6.84386 8.71432 6.6823 8.95406 6.56763 9.22508C6.45297 9.4961 6.39043 9.78797 6.38 10.1007C6.38 10.4134 6.43734 10.7053 6.552 10.9763C6.66666 11.2473 6.82823 11.4818 7.03671 11.6799C7.24518 11.8779 7.48493 12.0395 7.75595 12.1646C8.02697 12.2897 8.31884 12.3522 8.63155 12.3522C8.93384 12.3522 9.2205 12.2949 9.49152 12.1802C9.76253 12.0656 10.0075 11.904 10.2264 11.6955L14.3699 7.56769L23.3917 16.6364C23.6419 16.8866 23.7669 17.1941 23.7669 17.5589ZM14.6513 25.9866L16.3869 24.251C16.4703 24.4387 16.512 24.6263 16.512 24.8139C16.512 25.1787 16.3869 25.4862 16.1367 25.7364C15.8865 25.9866 15.579 26.1117 15.2142 26.1117C15.0266 26.1117 14.8389 26.07 14.6513 25.9866Z" fill="white"/>
</svg>
